<svg width="381" height="167" viewBox="0 0 381 167" fill="none" xmlns="http://www.w3.org/2000/svg">
<g filter="url(#filter0_d_1307_14)">
<path d="M189.627 2.51245C190.788 11.7746 192.036 21.0238 193.223 30.2816C194.05 36.3646 194.872 42.4562 195.351 48.5757C193.362 47.5282 191.494 46.1096 189.256 45.645C189.234 46.7011 189.44 47.7411 189.605 48.7801C191.067 57.4163 192.452 66.0718 193.475 74.7747C193.611 76.005 193.828 77.2311 193.851 78.4744C193.611 78.384 193.353 78.3238 193.185 78.1194C191.925 76.8224 190.71 75.4823 189.444 74.1939C191.889 89.3519 194.516 104.488 196.915 119.655C197.325 122.068 197.614 124.31 198.108 126.613C198.532 125.142 198.568 123.593 198.807 122.086C199.674 112.785 200.183 103.453 200.893 94.1389C201.686 95.7951 202.561 97.4084 203.397 99.0431C203.939 100.028 204.376 101.074 205.021 102.001C205.212 102.035 205.405 102.07 205.601 102.108C205.616 97.9483 205.657 93.7904 205.655 89.6326C205.754 87.2622 205.567 84.8875 205.784 82.5236C205.792 77.9248 205.797 73.3292 205.859 68.7304C207.405 71.8257 208.919 74.9317 210.476 78.0227C210.713 77.7086 211.164 77.444 211.067 76.9902C210.586 69.0832 210.012 61.1783 209.638 53.2649C209.461 51.6753 209.498 50.0696 209.444 48.4735C209.814 48.6091 209.992 48.9758 210.197 49.2855C212.112 52.3873 214.042 55.4804 215.91 58.61C216.177 59.0166 216.742 58.8983 217.157 58.9004C219.303 58.6961 221.389 58.0863 223.419 57.3786C226.457 56.2773 229.476 54.8329 231.723 52.4475C233.327 52.7594 234.901 53.3014 236.399 53.9639C236.434 59.251 236.34 64.5403 236.372 69.8274C236.495 72.8001 236.134 75.848 236.985 78.7432C237.636 80.8168 239.347 82.2827 240.893 83.7066C243.647 86.12 246.535 88.3753 249.422 90.6274C250.674 91.6405 252.392 91.4824 253.894 91.3964C255.694 91.2609 257.289 90.3628 258.904 89.638C260.424 88.9367 261.917 88.171 263.381 87.3579C265.327 86.2824 266.993 84.695 268.132 82.7871C268.855 81.6169 269.026 80.2263 269.256 78.8992C269.686 76.047 269.883 73.1636 269.863 70.2791C269.964 65.0737 269.068 59.9211 268.573 54.7544L268.471 54.5931C268.437 53.5735 268.246 52.569 268.111 51.5602C267.907 50.2094 267.763 48.8199 267.176 47.5701C266.643 46.3785 265.802 45.3482 264.854 44.462C262.332 42.1303 259.583 40.0051 256.528 38.4177C255.236 37.6778 253.741 38.3295 252.481 38.8049C248.082 40.6698 244.017 43.2262 240.006 45.8009C239.062 46.3688 238.269 47.2475 237.995 48.3337C237.763 49.25 237.295 50.0782 236.748 50.8396C235.267 50.6912 233.927 49.9975 232.508 49.5974C233.058 42.3529 233.817 35.1267 234.335 27.8779C234.41 26.5013 234.758 25.0311 234.158 23.7211C233.519 22.1896 232.392 20.9474 231.39 19.6504C227.681 15.0968 223.995 10.5227 220.151 6.08308C219.332 5.96263 218.527 6.16482 217.77 6.4595C215.276 7.36291 212.795 8.31687 210.277 9.15361C209.922 9.27621 209.546 9.31708 209.181 9.3687C208.809 7.19836 209.314 5.01189 209.353 2.8351C205.786 2.79208 202.209 2.99965 198.641 2.80821C196.116 2.65119 193.588 2.6157 191.062 2.51245H189.627ZM216.695 11.8154C217.031 11.807 217.358 11.916 217.652 12.0951C217.856 12.4607 217.93 12.8737 217.969 13.2889C219.095 19.3869 219.447 25.5839 219.791 31.7658C219.892 33.1876 219.765 34.632 219.963 36.0409C220.032 39.0049 220.057 41.9679 220.016 44.9298C219.348 45.0503 218.671 44.9771 218.006 44.8868C216.063 44.6932 214.114 44.9879 212.207 45.3277C211.226 45.4374 210.258 45.6256 209.277 45.7203C209.047 37.2669 209.177 28.8082 209.089 20.3548C209.094 18.4233 209.082 16.4949 209.095 14.5633C209.09 14.0794 209.245 13.4319 209.815 13.348C211.956 12.7006 214.18 12.3736 216.356 11.8638C216.468 11.8332 216.583 11.8183 216.695 11.8154ZM255.544 42.069C255.83 43.0907 255.57 44.1576 255.243 45.1341C254.525 46.7065 253.248 47.9326 251.868 48.9306C250.636 49.8792 248.969 49.9975 247.821 51.0816C247.664 50.8342 247.596 50.5686 247.611 50.2804C247.615 49.3361 247.544 48.3778 247.794 47.4572C250.271 45.5149 252.934 43.8242 255.544 42.069ZM211.954 48.1778C212.67 48.2122 213.403 48.1692 214.104 48.3606C216.022 48.5155 217.921 48.8596 219.785 49.3393L219.973 49.8072C219.982 49.9857 219.994 50.1642 220.011 50.3449C219.295 51.5064 218.428 52.5593 217.576 53.6198C216.764 53.9166 216.348 53.0691 215.851 52.6196C214.524 51.1633 213.205 49.6964 211.954 48.1778ZM256.324 52.0173C256.917 56.4397 257.508 60.8653 257.85 65.3157C257.979 66.8924 257.86 68.4809 258.038 70.0533C258.137 71.3503 257.903 72.6387 257.942 73.9358C257.916 76.4546 257.676 78.9648 257.377 81.4642C257.169 82.7656 257.052 84.1121 256.523 85.336C255.31 86.0329 254.104 86.7546 252.782 87.2235C252.457 87.3697 252.099 87.3859 251.755 87.3579C250.829 86.405 249.773 85.5156 249.121 84.3412C248.687 79.5853 248.287 74.8112 248.122 70.0318C247.924 68.5433 248.002 67.0333 247.944 65.5362C247.684 61.7806 247.789 58.0078 247.756 54.2436C248.309 53.9962 248.861 53.7478 249.433 53.5391C250.467 53.053 251.546 52.669 252.567 52.1463C253.814 52.0345 255.07 52.0323 256.324 52.0173Z" fill="white"/>
<path d="M140.72 13.4418C141.259 13.3019 141.969 13.4568 142.214 14.0096C142.418 16.8274 142.334 19.6732 142.551 22.4888C142.582 22.6351 142.644 22.9297 142.674 23.0782C142.917 23.0545 143.179 23.0566 143.381 22.8889C144.833 21.893 146.256 20.8562 147.737 19.9055C148.442 19.4753 149.152 19.0085 149.958 18.7913C150.711 18.6816 151.265 19.3247 151.644 19.8883C152.74 21.5144 153.572 23.3019 154.408 25.0743C155.35 27.2575 156.455 29.4063 156.988 31.738C157.264 32.6393 156.337 33.1577 155.744 33.6115C152.759 35.7023 149.685 37.6726 146.503 39.4536C145.77 39.9203 145.404 38.7846 144.906 38.4319C145.523 37.6941 146.17 36.9778 146.834 36.2787C147.096 36.0421 146.927 35.6614 146.871 35.3689C146.09 32.8909 145.428 30.3764 144.639 27.9028C144.618 27.7716 144.575 27.5113 144.553 27.3801C143.859 27.2037 143.143 27.3156 142.511 27.6382C142.453 27.7479 142.336 27.9673 142.278 28.077C142.13 32.0284 142.296 35.9819 142.268 39.9354C142.25 44.8138 142.296 49.6923 142.289 54.5707C142.455 55.9258 142.358 57.2917 142.382 58.6532C142.399 62.1809 142.422 65.7085 142.474 69.2361C143.095 70.7891 144.609 71.6882 145.568 72.9723C144.689 73.0175 143.816 72.925 142.951 72.7916C141.666 72.7701 140.367 72.6733 139.094 72.6626C137.026 72.4647 134.93 72.6045 132.879 72.882C131.954 72.9981 131.008 72.8992 130.095 73.0949C128.899 73.0971 127.626 73.3229 126.504 72.8002C125.919 72.5335 125.33 72.269 124.726 72.0474C124.756 71.9764 124.814 71.8366 124.844 71.7656C125.926 71.1375 126.863 70.2944 127.764 69.4361C128.557 68.6316 129.368 67.7368 129.589 66.5904C130.252 63.4177 130.329 60.1675 130.535 56.9454C130.563 47.5456 130.69 38.1479 130.8 28.7524C130.77 28.3975 130.877 27.9996 130.694 27.677C131 26.8768 130.759 25.9411 130.834 25.0872C130.299 25.2442 129.768 25.4098 129.241 25.5862C128.998 25.5948 128.755 25.6034 128.517 25.612C128.405 25.4292 128.284 25.2485 128.177 25.0678C128.54 24.5946 129.024 24.244 129.467 23.8504C132.642 20.725 135.809 17.5889 138.972 14.4506C139.421 13.9214 140.055 13.6031 140.72 13.4418Z" fill="white"/>
<path d="M46.3195 15.5454C48.1491 15.7175 49.9722 16.0595 51.8212 16.0229C54.8311 16.1756 57.854 16.2015 60.8618 15.9691C63.2633 15.8767 65.6519 15.4594 68.0555 15.5196C67.9416 16.2896 67.1869 16.651 66.8279 17.2812C65.7723 19.058 64.923 20.9788 64.4543 22.9942C64.2565 24.4741 64.1727 25.9691 64.1684 27.4618C64.0888 35.4097 64.1404 43.3597 64.2415 51.3076C64.1576 51.6776 64.5575 51.826 64.8478 51.6883C69.4293 50.5462 74.1721 50.1934 78.8827 50.3332C80.5768 50.4064 82.3398 50.2665 83.9716 50.7935C83.9394 50.9785 83.9093 51.1635 83.8792 51.3485C83.3675 51.5356 82.8343 51.7098 82.4215 52.0798C81.1294 53.1489 79.9512 54.3491 78.7365 55.5042C78.4312 55.8376 77.926 56.1688 78.0807 56.6958C78.5494 59.3222 78.6612 62.0001 79.1751 64.6179C80.177 68.2681 81.3594 71.8689 82.2904 75.5427C82.6795 75.5427 83.0407 75.4008 83.3051 75.1082C83.8727 74.5253 84.5543 74.0693 85.1563 73.5251C85.3798 71.1569 85.4637 68.7714 85.5239 66.3924C85.6851 64.7512 85.6271 63.1036 85.6787 61.4581C85.741 52.8133 85.5733 44.147 84.5306 35.556C84.0512 35.67 83.5653 35.7775 83.1224 35.9969C80.8542 37.0229 78.6354 38.1651 76.5242 39.4837C75.9544 39.8171 75.4213 40.2838 75.2127 40.9313C74.7333 42.4284 74.8687 44.0308 74.9504 45.5774C74.6043 45.6871 74.2603 45.799 73.9163 45.9108C72.1125 43.0048 70.242 40.1075 68.9649 36.9197C68.5994 35.827 68.0297 34.7171 68.2469 33.5319C69.1262 33.1125 69.8421 32.4392 70.6441 31.8993C73.8496 29.63 77.2294 27.5629 80.8671 26.0637C81.3616 25.8959 82.056 25.5496 82.4645 26.0572C85.8335 29.4343 89.095 32.9189 92.3242 36.4293C94.0635 38.3738 95.9684 40.4 96.4908 43.0521C96.9853 46.1496 97.0584 49.29 97.0713 52.4197C97.0433 56.0011 97.1616 59.5889 96.9036 63.1638C96.8843 65.9128 96.8047 68.6596 96.8026 71.4085C98.0366 71.9699 99.4664 72.0216 100.767 71.6774C100.711 72.0732 100.406 72.3442 100.131 72.6023C98.3312 74.2435 96.5059 75.8589 94.6655 77.4528C93.4099 78.5068 92.7843 80.1071 91.5352 81.1675C90.2022 82.342 88.2027 82.4431 86.5752 81.9204C84.909 81.0557 84.9133 78.9649 84.7779 77.341C82.6043 78.9047 80.4736 80.5309 78.3495 82.1613C77.3476 82.9356 76.0211 82.4968 74.9053 82.2817C74.0904 82.0559 73.0477 81.7354 72.8241 80.8019C71.8803 77.9454 70.9536 75.0824 70.0055 72.2281C68.98 69.0188 67.776 65.8525 67.0859 62.5465C66.7913 61.4861 67.3159 60.4471 67.8427 59.5588C69.2638 57.268 71.3019 55.4655 73.2347 53.6242C70.227 54.1985 67.0966 54.6782 64.4113 56.242C64.3877 63.6413 64.478 71.0386 64.4543 78.4379C64.5984 81.5956 64.4479 84.7575 64.5532 87.9152C64.5597 91.6364 64.5812 95.3576 64.6779 99.0766C64.8994 101.978 65.3659 105.138 67.3783 107.388C68.1028 108.287 69.2788 108.588 70.0851 109.384C69.9797 109.722 69.8378 110.044 69.6701 110.356C69.3068 110.359 68.9456 110.38 68.5865 110.333C64.5941 109.685 60.5672 109.218 56.5253 109.057C52.7199 109.029 48.8973 108.885 45.1112 109.343C44.922 108.722 44.292 108.233 44.3372 107.562C46.4463 106.381 48.478 104.74 49.3079 102.385C50.3614 99.3971 50.499 96.1943 50.7591 93.0668C51.0279 87.4032 51.1117 81.729 50.9505 76.0611C50.8064 72.2646 50.8387 68.4509 50.3614 64.676C46.4033 67.7755 41.5036 69.3393 36.6597 70.4148C36.7006 78.2938 36.8081 86.1729 36.8618 94.0519C36.9414 95.706 36.7844 97.373 36.9801 99.0207C37.4616 100.828 39.2375 101.755 40.7188 102.645C41.0585 102.871 41.6068 103.357 41.3015 103.77C40.6844 103.847 40.1168 103.549 39.5299 103.422C37.6444 103.015 35.7159 102.89 33.8003 102.72C27.4278 102.292 21.036 102.185 14.6506 102.15C14.4227 102.082 13.7928 101.862 14.2636 101.651C14.2808 101.466 14.3152 101.101 14.3324 100.916C16.6092 100.017 18.8989 98.7088 20.1631 96.5299C20.9349 95.2285 20.9543 93.6798 21.0854 92.2193C21.2639 89.3499 21.2123 86.4719 21.3241 83.5982C21.3284 79.621 21.2424 75.6438 21.1843 71.6667C18.1636 70.2664 15.1387 68.8682 12.1932 67.3131C10.14 66.3 8.68449 64.4372 7.43751 62.5745C6.39049 60.929 5.45311 59.2039 4.71997 57.3927V56.9518C8.0051 55.4612 11.6235 54.9449 15.1666 54.4588C15.1688 54.8094 15.2698 55.2719 14.8957 55.4741C12.6877 56.7969 10.355 57.9133 8.2029 59.3351C8.92528 60.1804 9.82611 60.8386 10.7269 61.4775C13.2166 63.2025 15.9126 64.6071 18.6388 65.9171C19.3827 66.2505 20.1158 66.7022 20.9564 66.7108C21.0897 65.3191 21.0037 63.9167 21.0188 62.5207C20.922 59.6599 20.9973 56.7905 20.7823 53.934C20.7113 51.7787 20.7844 49.6169 20.5888 47.4703C20.4146 40.2903 20.0943 33.1146 19.8277 25.9411C19.3891 23.6912 17.4176 22.1575 15.345 21.4584C15.3816 21.0304 15.6374 20.6002 16.0803 20.5034C16.807 20.4367 17.5402 20.5142 18.2668 20.5615C19.2644 20.7078 20.2727 20.6153 21.2768 20.6368C22.7774 20.6174 24.2846 20.7056 25.7809 20.5378C28.0728 20.4927 30.3668 20.4819 32.6608 20.426C34.6216 20.2733 36.5909 20.2453 38.5581 20.2367C38.4893 20.6604 38.4184 21.082 38.3496 21.5036C37.1305 22.1274 36.3587 23.3642 36.0341 24.6634C35.7976 26.0121 35.8298 27.3887 35.8126 28.7546C35.8126 32.3403 35.804 35.9259 35.933 39.5073C36.0083 42.5187 35.9588 45.5365 36.1609 48.5436C36.1996 50.8409 36.2104 53.1403 36.2964 55.4375C36.4705 58.365 36.4727 61.3054 36.6898 64.235C38.1045 64.0393 39.3773 63.3273 40.6393 62.7035C44.062 60.815 47.3966 58.7177 50.4302 56.2441C50.4624 44.0567 50.1249 31.8606 49.1595 19.714C49.1144 18.4428 48.0996 17.5308 47.0289 17.0188C46.4313 16.7779 46.2485 16.1369 46.3195 15.5454Z" fill="white"/>
<path d="M285.685 15.2958C286.338 15.171 286.497 15.8765 286.476 16.3777C286.5 19.359 286.622 22.3381 286.657 25.3194C286.755 27.0724 286.59 28.8491 286.844 30.585C288.925 30.5613 291.006 30.6559 293.089 30.6473C293.132 31.0259 293.169 31.4066 293.218 31.7852C293.397 32.4068 293.298 33.0672 293.485 33.6867C293.556 34.3599 293.62 35.0375 293.659 35.715C291.657 35.7581 289.656 35.7925 287.654 35.8097C287.377 35.7903 287.117 35.8699 286.869 35.9667C286.493 42.0174 286.803 48.081 286.678 54.1382C286.571 59.3802 286.321 64.6178 286.177 69.8597C286.001 70.6298 286.104 71.4299 286.048 72.2129C285.82 78.1582 285.498 84.1078 285.293 90.0553C285.205 91.5696 284.883 93.3162 285.874 94.6175C287.48 96.2437 289.338 97.6138 291.245 98.8679C290.849 99.3153 290.49 99.8208 289.995 100.158C289.608 100.161 289.277 99.9154 288.938 99.782C285.01 97.8311 281.041 95.9511 277.255 93.7292C276.292 93.1635 275.348 92.4967 274.739 91.5416C274.142 90.664 273.972 89.5821 273.963 88.5432C274.036 82.9506 274.109 77.3581 274.337 71.7698C274.522 66.2396 275.135 60.7396 275.245 55.2072C275.354 49.4792 275.3 43.7232 274.72 38.0274C274.675 37.1949 274.563 36.3711 274.389 35.558C271.336 35.5709 268.285 35.515 265.234 35.515C265.196 34.9773 265.174 34.4395 265.215 33.9018C268.915 31.839 272.318 29.26 275.511 26.4787C278.633 23.7126 281.458 20.613 283.939 17.2596C284.47 16.5627 284.98 15.8335 285.685 15.2958Z" fill="white"/>
<path d="M108.918 19.2666C109.406 18.9978 109.87 18.5288 110.468 18.5826C111.345 18.7267 112.132 19.1634 112.959 19.4602C113.422 21.5725 113.417 23.7815 113.753 25.9175C113.779 26.167 113.804 26.4186 113.83 26.6703C113.908 26.7284 114.058 26.8424 114.135 26.9005C115.279 25.9798 116.55 25.2313 117.786 24.4419C118.928 23.7278 120.263 23.1018 121.643 23.3148C122.516 23.5256 122.983 24.3817 123.402 25.0979C124.343 27.0059 125.158 28.9762 125.939 30.9551C126.822 33.1039 127.771 35.2613 128.198 37.5543C128.147 38.2835 127.803 38.9589 127.166 39.3439C124.354 41.1722 121.473 42.8952 118.592 44.6117C118.27 44.7902 117.958 45.0397 117.571 45.0096C117.363 44.6418 117.098 44.3127 116.801 44.018C117.5 43.3275 118.145 42.5854 118.794 41.8519C118.751 41.8218 118.661 41.7595 118.618 41.7293C118.433 40.6194 118.068 39.5504 117.778 38.4641C117.117 36.0701 116.395 33.6933 115.718 31.3057C115.576 30.6432 114.785 29.871 114.153 30.4754C113.974 31.1702 114.088 31.8972 114.092 32.6049C114.247 37.4941 114.449 42.3789 114.548 47.2681C114.796 48.9609 114.555 50.7011 114.83 52.3961C115.026 55.5688 115.451 58.7242 115.632 61.8991C116.068 65.7666 116.047 69.6921 116.662 73.5445C117.055 74.6178 118.186 75.1405 119.134 75.631C119.196 75.7342 119.319 75.9429 119.379 76.0483C119.343 76.173 119.265 76.4268 119.227 76.5516C113.237 76.6978 107.243 76.6699 101.249 76.6763C100.612 76.6763 99.9716 76.7086 99.3395 76.6032C99.6706 75.7815 100.245 75.0502 101.014 74.6028C101.79 74.1661 102.573 73.7037 103.192 73.0562C103.418 72.8325 103.508 72.5249 103.482 72.2152C103.487 66.1172 103.476 60.0213 103.463 53.9254C103.53 53.0607 103.31 52.2111 103.347 51.3464C103.351 46.7519 103.285 42.1552 103.244 37.5607C102.997 34.8785 103.218 32.1639 102.855 29.4881C100.672 29.4859 98.4731 29.3827 96.3038 29.658C95.9211 29.5548 95.3384 29.3268 95.2997 28.8751C99.8039 25.6271 104.299 22.3554 108.918 19.2666Z" fill="white"/>
<path d="M304.688 21.269C304.981 20.6904 305.297 20.0687 305.92 19.7805C306.06 19.858 306.341 20.0128 306.481 20.0903C306.703 21.9035 306.662 23.7319 306.763 25.5516C306.924 26.2507 306.836 26.9734 306.885 27.6854C307.029 31.2151 307.251 34.7406 307.38 38.2725C308.399 38.2488 309.425 38.2983 310.444 38.208C311.162 38.3456 311.878 38.137 312.6 38.1499C313.727 38.1628 314.855 38.1521 315.982 38.1112C315.913 39.5287 316.012 40.9741 315.735 42.3723C313.017 42.482 310.295 42.6067 307.586 42.8476C307.616 46.044 307.567 49.2404 307.614 52.4346C307.756 52.9142 307.694 53.4176 307.705 53.9101C307.692 59.2166 307.791 64.5252 307.808 69.8317C308.014 72.2623 307.898 74.708 307.98 77.1472C308.055 81.5868 308.178 86.02 308.255 90.4639C308.405 92.8709 308.324 95.2929 308.582 97.6934C310.865 98.8635 313.11 100.107 315.388 101.283C316.006 101.526 316.605 102.18 317.3 101.976C318.835 100.933 320.202 99.6594 321.615 98.4613C321.969 98.2397 321.742 97.816 321.66 97.5105C319.329 96.7921 316.902 96.4824 314.529 95.9511C313.705 95.7252 312.602 95.7898 312.159 94.9122C313.699 94.497 315.313 94.7336 316.887 94.7896C320.538 94.9788 324.188 95.2111 327.837 95.4391C328.222 95.5123 328.826 95.5187 328.843 96.0672C328.929 96.7814 328.232 97.104 327.809 97.5256C326.117 99.0722 324.612 100.806 323.012 102.445C322.051 103.417 321.421 104.708 320.241 105.454C319.832 105.803 319.25 105.753 318.775 105.611C314.896 104.411 311.046 103.112 307.268 101.628C303.794 100.238 300.246 98.842 297.219 96.5964C296.813 96.2135 296.254 95.8435 296.224 95.2327C295.891 89.4938 295.977 83.7464 295.968 77.999C295.985 75.7749 296.039 73.5529 296.11 71.3309C296.138 61.7698 295.895 52.213 295.697 42.6541C294.158 42.7315 292.612 42.7293 291.079 42.596C290.408 42.5702 290.081 41.7442 290.339 41.1935C290.533 40.8644 290.791 40.5805 291.06 40.3073C294.059 37.2745 296.873 34.0415 299.283 30.5118C301.351 27.5972 303.086 24.4611 304.688 21.269Z" fill="white"/>
<path d="M357.964 29.8172C358.566 29.3654 359.211 29.9462 359.306 30.57C359.663 32.4586 359.643 34.3966 359.961 36.2916C362.199 34.9472 364.455 33.6308 366.667 32.2413C367.157 31.9423 367.549 31.4368 368.155 31.3637C368.559 31.2884 369.122 31.3099 369.359 31.7143C370.361 33.1146 371.21 34.6203 372.109 36.0894C373.497 38.5222 374.919 40.9528 375.94 43.5684C376.301 44.4223 376.359 45.3903 376.187 46.2958C375.538 47.6144 374.243 48.4124 373.188 49.3739C370.159 51.8238 367.088 54.2243 364.003 56.6033C363.715 56.1602 363.315 55.8118 362.937 55.4569C363.767 54.1813 364.747 53.0069 365.618 51.7593C365.682 51.4689 365.583 51.1807 365.508 50.9054C364.754 48.5565 364.051 46.1904 363.298 43.8394C362.924 42.6413 362.561 41.4432 362.176 40.2516C361.382 40.8022 360.587 41.355 359.766 41.8648C359.86 48.3285 360.187 54.7857 360.288 61.2516C360.514 63.4628 360.381 65.7084 360.507 67.9325C360.727 69.8448 360.548 71.7936 360.757 73.7101C360.866 78.6036 361.124 83.4906 361.357 88.3776C361.567 90.0683 362.849 91.3632 364.248 92.1999C366.016 93.2582 368.009 93.8841 370.006 94.3444C370.35 94.4369 370.7 94.4972 371.055 94.5961C371.887 94.7058 372.715 94.8779 373.558 94.9618C373.547 95.435 373.525 95.9082 373.508 96.3814C371.691 96.4847 369.873 96.3599 368.058 96.39C367.275 96.3406 366.484 96.4287 365.719 96.2717C363.255 96.2782 360.798 95.9986 358.405 95.4178C356.01 94.8886 353.645 94.2347 351.301 93.5163C348.347 92.6473 345.258 91.9999 342.168 92.3698C341.964 91.8945 341.751 91.4213 341.618 90.9244C344.2 90.6964 345.989 88.4981 347.341 86.4912C348.392 84.3316 348.39 81.858 348.44 79.5091C348.511 72.7637 348.349 66.0203 348.306 59.2748C348.117 57.5046 348.242 55.6999 348.167 53.9168C348.184 50.1956 347.911 46.4873 347.975 42.7661C346.907 42.7058 345.845 42.9123 344.778 42.8693C344.757 42.609 344.74 42.3466 344.727 42.0864C345.191 41.383 345.589 40.6172 346.234 40.0558C350.188 36.696 354.034 33.2071 357.964 29.8172Z" fill="white"/>
<path d="M329.616 35.0407C329.04 35.057 328.464 35.1254 327.917 35.2719C323.809 38.4791 319.833 41.8669 315.7 45.0374C315.26 47.1002 315.217 49.2372 314.937 51.3236C314.913 52.7089 314.376 54.0307 314.389 55.4159C314.632 61.0751 314.575 66.7365 314.652 72.3979C314.631 73.7831 314.185 75.1146 314.131 76.4955C314.935 77.3322 315.677 78.2292 316.474 79.0767C319.338 82.0235 322.209 85.0177 325.606 87.358C326.135 87.7688 326.82 87.8473 327.461 87.9656C329.095 88.1162 330.744 88.3065 332.384 88.057C333.179 88.1065 333.779 87.501 334.222 86.9116C335.714 84.7176 337.404 82.6667 339.017 80.5609C339.877 79.3542 340.941 78.2754 341.586 76.9311C340.171 74.8898 339.1 72.5667 337.372 70.7685C337.176 70.7857 336.783 70.8234 336.587 70.8384C336.441 72.1828 336.125 73.4938 335.835 74.8124C334.998 78.241 334.088 81.6847 332.551 84.879C332.376 85.1994 332.19 85.8447 331.717 85.5242C329.34 84.1863 327.587 81.7525 326.977 79.0982C326.607 76.8891 326.729 74.6349 326.541 72.4086C326.481 69.6167 326.431 66.8247 326.429 64.0306C326.409 63.6692 326.461 63.282 326.278 62.9551C326.489 62.6238 326.403 62.2377 326.321 61.885C326.42 60.3707 325.955 58.7219 326.746 57.3087C329.023 57.2829 331.217 57.9626 333.416 58.4703C334.734 58.7908 336.045 59.136 337.361 59.4759C337.638 59.5597 337.915 59.6221 338.205 59.691C339.16 59.9448 340.122 60.1728 341.081 60.4223C341.427 60.4997 341.886 60.6041 342.139 60.2663C344.051 58.4853 345.229 56.0891 346.429 53.8134C346.016 52.3851 345.385 51.0085 344.897 49.5975C344.168 47.6723 343.43 45.7504 342.725 43.8167C342.272 42.7197 341.951 41.5657 341.457 40.4881C339.997 39.5674 338.428 38.8125 336.92 37.9607C336.355 37.666 335.787 37.3756 335.222 37.0895C333.728 36.3517 332.256 35.5225 330.648 35.0622C330.307 35.0421 329.962 35.0309 329.616 35.0407ZM329.24 38.8103C329.644 38.8199 329.996 39.0241 330.078 39.504C330.914 41.655 331.764 43.7963 332.615 45.9408C333.716 48.6532 334.716 51.4108 335.883 54.093C335.877 54.2759 335.876 54.4587 335.878 54.6415C334.566 54.7082 333.259 54.4608 331.965 54.3189C330.107 54.2113 328.26 53.9468 326.407 53.7919C326.414 51.5979 326.648 49.4157 326.73 47.226C326.996 44.6556 326.798 41.9421 327.901 39.5416C328.117 39.1024 328.72 38.798 329.24 38.8103Z" fill="white"/>
<path d="M169.035 39.4341C170.856 39.7933 172.733 39.5545 174.573 39.7696C176.222 39.8019 177.858 39.9804 179.49 40.1869C180.408 40.2192 181.341 40.2644 182.246 40.0493C182.225 40.2299 182.205 40.4128 182.186 40.5935C181.405 41.8668 180.657 43.1746 180.094 44.562C178.099 48.8726 175.766 53.0111 173.453 57.1582C171.372 60.832 169.521 64.6328 167.472 68.3261C162.067 78.042 156.174 87.515 149.421 96.3555C145.746 96.4265 142.076 96.1103 138.43 95.6758C134.969 95.1359 131.52 94.454 128.155 93.4667C126.994 93.1548 125.853 92.7698 124.715 92.3848C123.922 92.0987 123.12 91.8384 122.34 91.5201C121.525 91.2104 120.727 90.8641 119.93 90.522C118.504 89.9004 117.113 89.2078 115.748 88.47C115.651 87.6698 116.242 86.9665 116.584 86.2803C118.025 84.0132 119.934 82.1009 121.873 80.2662C124.677 80.4554 127.472 80.791 130.271 81.0233C130.965 81.2255 131.785 80.9351 132.397 81.3911C132.331 81.7891 131.913 81.8256 131.617 81.9375C129.308 82.5742 126.986 83.1592 124.688 83.8346C124.202 83.925 124.137 84.4864 123.944 84.8564C123.572 85.8716 123.069 86.8826 123.041 87.986C124.696 88.7776 126.569 88.8916 128.353 89.2078C134.223 90.0037 140.184 90.3672 146.088 89.767C148.23 86.2545 150.465 82.7979 152.646 79.3068C153.295 78.3561 153.832 77.3301 154.555 76.431C154.886 76.018 154.69 75.4394 154.604 74.9704C153.097 69.6575 151.433 64.3898 149.797 59.1156C149.087 56.8893 148.382 54.6609 147.658 52.4411C147.286 51.3699 146.957 50.2815 146.578 49.2124C146.176 48.1219 145.856 46.9969 145.346 45.9494C144.725 45.1794 143.644 45.0202 142.717 44.9255C142.801 44.6373 142.941 44.3706 143.123 44.1318C143.865 44.1232 144.605 44.0996 145.346 44.0565C147.694 43.8242 150.074 43.9447 152.431 43.7812C155.492 43.8242 158.541 43.394 161.591 43.2951C160.998 44.5814 159.235 44.4265 158.468 45.545C158.081 45.9774 158.031 46.5925 158.186 47.1324C159.379 51.6968 160.577 56.2634 161.867 60.8019C162.054 61.3139 162.099 61.9226 162.544 62.2947C164.709 58.9048 166.586 55.3406 168.57 51.8409C169.366 50.3761 170.174 48.9178 170.912 47.4228C171.268 46.6979 171.301 45.8741 171.584 45.1256C171.853 44.2544 172.141 43.3876 172.449 42.5293C172.595 42.1551 172.75 41.7808 172.898 41.4065C171.41 41.2646 170.144 40.3676 169.035 39.4341Z" fill="white"/>
</g>
<path d="M243.588 155.78C243.71 156.311 243.107 157.119 241.779 158.202C240.164 159.511 238.6 160.277 237.087 160.502L236.167 160.349C235.247 159.592 234.358 158.836 233.499 158.08C231.945 156.71 231.077 155.626 230.893 154.829C230.831 153.419 230.801 152.356 230.801 151.64C230.801 149.023 230.882 146.233 231.046 143.269C233.438 141.449 235.922 140.059 238.497 139.098H239.264L241.993 142.502C242.32 142.829 242.586 143.31 242.79 143.943L238.528 147.224C239.06 146.509 239.325 145.885 239.325 145.354C239.325 145.211 239.305 145.068 239.264 144.925C239.284 144.843 239.295 144.751 239.295 144.649C239.295 144.322 238.937 143.207 238.221 141.306C237.649 141.552 236.872 141.919 235.891 142.41C235.339 142.778 234.981 143.248 234.818 143.821L234.756 156.485C234.879 156.833 235.216 157.252 235.768 157.742C236.259 158.192 236.698 158.509 237.087 158.693C238.62 158.202 239.54 157.671 239.847 157.098L239.816 154.185L243.526 154.983L243.588 155.78Z" fill="white"/>
<path d="M247.399 148.972L246.296 149.402C246.009 149.545 245.887 149.739 245.928 149.984C245.948 150.802 246.602 151.405 247.89 151.793L247.798 142.226C247.716 141.511 247.338 141 246.663 140.693H252.398C251.928 141.061 251.692 141.49 251.692 141.981L251.784 151.855C252.643 151.569 253.675 151.068 254.882 150.352L254.912 141.736C254.912 141.224 254.871 140.887 254.79 140.724C254.626 140.417 254.207 140.11 253.532 139.804L259.451 139.712C258.694 140.366 258.285 140.928 258.224 141.398L258.347 148.298C259.246 147.827 259.911 147.592 260.34 147.592C260.769 147.592 261.311 147.715 261.965 147.96C261.25 148.512 260.902 149.218 260.922 150.076C260.514 149.504 260.074 149.218 259.604 149.218C259.277 149.218 258.868 149.361 258.377 149.647L258.561 160.717C258.561 161.248 259.021 161.698 259.941 162.066L253.471 161.974C254.227 161.647 254.687 161.156 254.851 160.502L254.882 151.855C253.716 152.488 252.684 152.918 251.784 153.143L251.846 159.245C251.948 159.858 252.428 160.339 253.287 160.686L246.265 160.594C247.389 160.247 247.951 159.633 247.951 158.754L247.89 152.836C245.948 152.366 244.997 151.262 245.038 149.524C245.754 149.136 246.367 148.942 246.878 148.942C247.042 148.942 247.215 148.952 247.399 148.972Z" fill="white"/>
<path d="M270.241 153.511L269.934 152.468L267.818 145.415L266.193 150.904C267.829 152.417 269.178 153.286 270.241 153.511ZM261.839 153.541L260.459 152.039C261.399 150.751 262.503 150.015 263.771 149.831L265.948 142.993C266.111 142.482 266.193 142.093 266.193 141.827C266.193 141.051 266.019 140.57 265.672 140.386H270.241C269.852 140.57 269.658 141.02 269.658 141.736C269.658 141.981 269.72 142.298 269.842 142.686L273.215 153.143C273.563 152.979 274.125 152.683 274.902 152.253C274.452 153.092 274.002 153.746 273.553 154.216L274.779 157.988C274.984 158.621 275.096 158.948 275.116 158.969C275.239 159.276 275.433 159.552 275.699 159.797L276.588 160.318H270.425L271.191 159.797C271.621 159.695 271.835 159.388 271.835 158.877C271.835 158.754 271.764 158.458 271.621 157.988L270.823 155.381C269.556 155.115 267.89 154.001 265.825 152.039L265.702 152.468L263.341 159.797C263.219 160.185 263.157 160.492 263.157 160.717C263.157 161.064 263.454 161.361 264.047 161.606L262.789 161.667H260.766L259.232 161.606C259.723 161.442 260.03 161.259 260.152 161.054C260.214 160.952 260.336 160.615 260.52 160.042L263.403 151.057C262.524 151.119 261.757 151.497 261.103 152.192L261.839 153.541Z" fill="white"/>
<path d="M283.822 147.715L283.454 138.73L281.368 139.712L281.399 147.408L282.902 148.512L283.822 147.715ZM284.343 149.739C284.506 151.313 285.109 153.572 286.152 156.516C287.256 159.623 288.063 161.085 288.575 160.901C289.106 160.942 289.76 161.228 290.537 161.759C291.518 162.434 292.336 162.904 292.99 163.17C292.806 163.19 292.612 163.201 292.408 163.201C291.672 163.201 290.568 163.017 289.096 162.649C287.644 162.281 286.551 162.097 285.815 162.097C285.508 162.097 285.232 162.127 284.987 162.189C285.13 161.984 285.201 161.678 285.201 161.269C285.201 160.328 284.782 158.611 283.944 156.117C282.902 153.01 282.329 151.231 282.227 150.782L281.246 149.248L281.43 154.523L280.264 152.744L280.142 152.499L280.326 160.502L279.345 158.969L278.67 166.328L276.462 153.664L277.566 154.4L276.401 146.795L277.934 147.47L276.646 136.707H281.368V138.362L283.699 137.136L287.44 141.705L286.765 148.635L284.343 149.739Z" fill="white"/>
<path d="M297.461 153.511L297.155 152.468L295.039 145.415L293.414 150.904C295.049 152.417 296.398 153.286 297.461 153.511ZM289.059 153.541L287.68 152.039C288.62 150.751 289.724 150.015 290.991 149.831L293.168 142.993C293.332 142.482 293.414 142.093 293.414 141.827C293.414 141.051 293.24 140.57 292.892 140.386H297.461C297.073 140.57 296.879 141.02 296.879 141.736C296.879 141.981 296.94 142.298 297.063 142.686L300.436 153.143C300.783 152.979 301.346 152.683 302.122 152.253C301.673 153.092 301.223 153.746 300.773 154.216L302 157.988C302.204 158.621 302.317 158.948 302.337 158.969C302.46 159.276 302.654 159.552 302.92 159.797L303.809 160.318H297.645L298.412 159.797C298.841 159.695 299.056 159.388 299.056 158.877C299.056 158.754 298.984 158.458 298.841 157.988L298.044 155.381C296.777 155.115 295.111 154.001 293.046 152.039L292.923 152.468L290.562 159.797C290.439 160.185 290.378 160.492 290.378 160.717C290.378 161.064 290.674 161.361 291.267 161.606L290.01 161.667H287.986L286.453 161.606C286.944 161.442 287.25 161.259 287.373 161.054C287.434 160.952 287.557 160.615 287.741 160.042L290.623 151.057C289.744 151.119 288.978 151.497 288.323 152.192L289.059 153.541Z" fill="white"/>
<path d="M316.715 155.78C316.838 156.311 316.235 157.119 314.906 158.202C313.291 159.511 311.727 160.277 310.214 160.502L309.294 160.349C308.374 159.592 307.485 158.836 306.627 158.08C305.073 156.71 304.204 155.626 304.02 154.829C303.959 153.419 303.928 152.356 303.928 151.64C303.928 149.023 304.01 146.233 304.173 143.269C306.565 141.449 309.049 140.059 311.625 139.098H312.391L315.121 142.502C315.448 142.829 315.713 143.31 315.918 143.943L311.655 147.224C312.187 146.509 312.453 145.885 312.453 145.354C312.453 145.211 312.432 145.068 312.391 144.925C312.412 144.843 312.422 144.751 312.422 144.649C312.422 144.322 312.064 143.207 311.349 141.306C310.776 141.552 310 141.919 309.018 142.41C308.466 142.778 308.109 143.248 307.945 143.821L307.884 156.485C308.006 156.833 308.344 157.252 308.896 157.742C309.386 158.192 309.826 158.509 310.214 158.693C311.747 158.202 312.667 157.671 312.974 157.098L312.943 154.185L316.654 154.983L316.715 155.78Z" fill="white"/>
<path d="M319.3 136.032C321.406 136.236 323.869 136.339 326.69 136.339C330.227 136.339 333.283 136.185 335.859 135.879L336.994 141.368C336.687 140.856 336.237 140.427 335.644 140.08C335.052 139.712 334.469 139.528 333.897 139.528L329.971 139.589L330.033 154.523L328.868 152.744L328.745 152.499L328.929 160.502L327.948 158.969L327.273 166.328L325.065 153.664L326.169 154.4L325.004 146.795L326.537 147.47L325.586 139.62L321.508 139.681C320.466 139.558 319.433 140.059 318.411 141.184L319.3 136.032Z" fill="white"/>
<path d="M339.08 157.313L338.866 142.011C338.232 142.236 337.608 142.686 336.995 143.361L337.884 138.822C338.477 138.884 338.855 138.965 339.019 139.068C339.101 139.109 339.653 139.129 340.675 139.129C343.598 139.129 346.348 138.976 348.924 138.669L350.058 143.545C349.751 143.013 349.312 142.574 348.74 142.226C348.167 141.858 347.574 141.684 346.961 141.705L342.239 141.797C342.218 141.899 342.208 141.991 342.208 142.073L342.269 148.298L346.133 148.267C346.665 148.185 347.145 147.603 347.574 146.519L347.482 152.315C347.135 151.19 346.521 150.628 345.642 150.628L342.3 150.659L342.361 157.466L346.961 157.558C347.574 157.579 348.167 157.415 348.74 157.068C349.312 156.7 349.751 156.25 350.058 155.718L348.924 160.594C346.348 160.287 343.598 160.134 340.675 160.134C339.653 160.134 339.101 160.155 339.019 160.195C338.855 160.298 338.477 160.379 337.884 160.441L336.995 155.902C337.69 156.659 338.385 157.129 339.08 157.313Z" fill="white"/>
<path d="M358.626 147.715L358.258 138.73L356.173 139.712L356.203 147.408L357.706 148.512L358.626 147.715ZM359.147 149.739C359.311 151.313 359.914 153.572 360.956 156.516C362.06 159.623 362.868 161.085 363.379 160.901C363.91 160.942 364.565 161.228 365.341 161.759C366.323 162.434 367.14 162.904 367.795 163.17C367.611 163.19 367.416 163.201 367.212 163.201C366.476 163.201 365.372 163.017 363.9 162.649C362.449 162.281 361.355 162.097 360.619 162.097C360.312 162.097 360.036 162.127 359.791 162.189C359.934 161.984 360.006 161.678 360.006 161.269C360.006 160.328 359.587 158.611 358.749 156.117C357.706 153.01 357.134 151.231 357.031 150.782L356.05 149.248L356.234 154.523L355.069 152.744L354.946 152.499L355.13 160.502L354.149 158.969L353.474 166.328L351.266 153.664L352.37 154.4L351.205 146.795L352.738 147.47L351.45 136.707H356.173V138.362L358.503 137.136L362.244 141.705L361.57 148.635L359.147 149.739Z" fill="white"/>
<path d="M375.363 155.289C374.791 155.78 373.676 156.69 372.02 158.018C369.833 159.776 368.382 160.655 367.666 160.655C367.564 160.655 367.492 160.625 367.452 160.563L363.618 155.964C363.087 154.819 362.821 154.063 362.821 153.695C362.821 153.245 363.066 152.867 363.557 152.56L364.63 151.885L366.961 151.333C366.675 151.599 366.388 151.855 366.102 152.1C365.796 152.427 365.622 152.764 365.581 153.112C365.724 153.623 366.276 154.512 367.237 155.78C368.259 157.129 368.944 157.753 369.291 157.65C369.639 157.037 370.303 156.189 371.285 155.105L371.039 155.167C371.182 155.064 371.254 154.911 371.254 154.707C371.254 154.236 369.772 152.305 366.808 148.911C363.843 145.497 362.361 143.657 362.361 143.391C362.361 143.228 362.423 143.105 362.545 143.023L363.005 142.471L366.378 139.773C368.586 138.015 370.027 137.136 370.702 137.136C370.804 137.136 370.886 137.167 370.947 137.228L374.78 141.827C375.312 142.972 375.578 143.729 375.578 144.097C375.578 144.546 375.322 144.925 374.811 145.231L371.775 145.998L371.745 145.783C371.969 145.558 372.235 145.354 372.542 145.17C372.644 145.129 372.716 144.955 372.756 144.649C372.593 144.117 371.877 143.31 370.61 142.226C369.342 141.122 368.474 140.621 368.003 140.724C367.738 140.785 367.452 141.061 367.145 141.552C366.838 142.022 366.685 142.4 366.685 142.686C366.685 142.931 366.777 143.177 366.961 143.422C368.228 145.057 370.232 147.337 372.971 150.26C374.954 152.366 375.946 153.746 375.946 154.4C375.946 154.625 375.854 154.819 375.67 154.983L375.332 155.044L375.363 155.289Z" fill="white"/>
<path d="M246.023 119.264L245.333 118.344C245.088 118.022 244.965 117.677 244.965 117.309C244.965 117.171 245.003 117.056 245.08 116.964C245.233 116.764 245.985 116.266 247.334 115.469C247.84 115.837 248.376 116.243 248.944 116.688C249.756 117.332 250.124 117.853 250.048 118.252L249.956 123.495L250.807 123.541L249.151 125.404C248.767 125.68 248.491 125.818 248.323 125.818C248.169 125.818 248.116 125.726 248.162 125.542V124.714L246.69 125.634C246.015 125.757 245.387 124.423 244.804 121.632C245.065 121.111 245.54 120.697 246.23 120.391L247.748 119.701C247.227 120.268 246.974 120.713 246.989 121.034C246.958 121.249 246.943 121.464 246.943 121.678C246.943 122.706 247.165 123.518 247.61 124.116C247.855 124.147 248.024 124.009 248.116 123.702V116.964L247.771 117.148C247.694 117.194 247.487 117.324 247.15 117.539C246.583 117.891 246.299 118.206 246.299 118.482L246.506 119.241L246.023 119.264Z" fill="white"/>
<path d="M250.928 119.241C251.71 118.704 252.6 118.037 253.596 117.24V119.31C253.888 118.957 254.256 118.551 254.7 118.091C255.344 117.6 255.727 117.355 255.85 117.355C255.927 117.355 255.98 117.378 256.011 117.424L257.322 119.31C257.337 119.325 257.345 121.832 257.345 126.83C257.345 126.983 257.268 127.083 257.115 127.129L254.999 128.371V128.279C255.321 127.972 255.505 127.689 255.551 127.428C255.536 124.852 255.467 122.169 255.344 119.379C255.191 119.072 254.899 118.98 254.47 119.103C254.424 119.118 254.156 119.448 253.665 120.092C253.619 121.839 253.658 123.71 253.78 125.703C253.811 126.194 254.049 126.493 254.493 126.6C254.279 126.6 253.949 126.592 253.504 126.577C253.075 126.562 252.753 126.554 252.538 126.554C252.4 126.554 252.186 126.562 251.894 126.577C251.618 126.592 251.411 126.6 251.273 126.6C251.672 126.431 251.91 126.293 251.986 126.186C252.048 126.125 252.078 125.971 252.078 125.726L252.124 119.195L250.928 119.241Z" fill="white"/>
<path d="M264.724 125.979L262.309 126.094V125.082L260.561 126.002L258.629 124.599L258.169 117.631L260.975 116.044L262.286 117.884L262.332 113.169C262.394 112.832 262.225 112.418 261.826 111.927H264.494C264.187 112.326 264.034 112.701 264.034 113.054L264.241 125.174C264.318 125.496 264.479 125.764 264.724 125.979ZM260.469 117.953L260.285 121.655C260.224 122.959 260.377 123.971 260.745 124.691L262.309 123.955L262.332 118.781L261.159 117.355L260.469 117.953Z" fill="white"/>
<path d="M279.106 125.174C279.183 125.557 278.761 125.987 277.841 126.462C277.074 126.861 276.446 127.091 275.955 127.152L275.541 127.083C273.993 125.887 273.172 125.121 273.08 124.783C273.05 124.063 273.119 122.284 273.287 119.448C274.345 118.681 275.441 118.098 276.576 117.7L278.209 118.827L278.393 119.126C278.73 119.448 278.93 120.138 278.991 121.195C279.022 121.732 279.06 123.058 279.106 125.174ZM276.898 125.726C276.898 121.724 276.752 119.356 276.461 118.62L275.725 119.057C275.464 119.256 275.296 119.463 275.219 119.678L275.334 125.726C275.441 126.033 275.648 126.255 275.955 126.393C276.415 126.255 276.729 126.033 276.898 125.726Z" fill="white"/>
<path d="M283.891 117.401H282.604L282.397 127.175C282.366 127.236 282.351 127.298 282.351 127.359C282.351 127.635 282.719 128.087 283.455 128.716L281.569 128.026C280.833 127.75 280.442 127.42 280.396 127.037L280.511 117.309H278.579C279.897 116.573 281.216 115.3 282.535 113.491L282.489 116.412H283.684L283.891 117.401Z" fill="white"/>
<path d="M291.231 125.91C290.419 126.707 289.598 127.275 288.771 127.612C288.694 127.643 288.265 127.758 287.483 127.957C288.541 127.144 289.092 126.247 289.138 125.266C289.2 125.174 289.238 124.201 289.253 122.345C289.269 120.536 289.253 119.072 289.207 117.953L288.84 116.987C288.794 116.91 288.732 116.872 288.656 116.872C288.518 116.872 287.943 117.447 286.931 118.597L286.885 124.76C286.808 125.251 286.931 125.619 287.253 125.864L284.309 125.795C284.554 125.58 284.715 125.312 284.792 124.99L284.999 112.41C284.999 112.027 284.845 111.651 284.539 111.283L287.437 111.053C287.038 111.544 286.869 111.958 286.931 112.295L286.977 117.7C287.575 116.795 287.996 116.236 288.242 116.021C288.349 115.929 288.61 115.814 289.023 115.676L291.231 117.194V125.91Z" fill="white"/>
<path d="M297.583 120.552L297.008 121.747C296.41 121.395 295.728 121.218 294.962 121.218C294.502 121.218 294.218 121.28 294.111 121.402L294.272 125.174C294.394 125.435 294.655 125.672 295.054 125.887C295.36 125.488 295.567 124.99 295.675 124.392C295.69 124.331 295.728 123.94 295.789 123.219L296.801 124.507L295.399 126.508L294.226 126.531L291.903 124.507C291.78 123.925 291.719 123.258 291.719 122.506C291.719 121.433 291.826 120.306 292.041 119.126L294.617 117.102C294.801 117.04 294.954 117.048 295.077 117.125L296.939 118.344L297.583 120.552ZM295.927 120.69L294.755 118.045C294.647 117.907 294.578 117.838 294.548 117.838C294.486 117.838 294.425 117.891 294.364 117.999L294.088 120.621C294.946 120.575 295.56 120.598 295.927 120.69Z" fill="white"/>
<path d="M297.846 116.021C298.628 115.484 299.517 114.817 300.514 114.02V116.09C301.311 115.4 301.832 115.055 302.078 115.055C302.154 115.055 302.208 115.078 302.239 115.124L303.319 117.01C303.442 117.148 303.503 117.286 303.503 117.424C303.503 117.577 303.427 117.677 303.273 117.723L301.158 118.965V118.873C301.48 118.566 301.664 118.282 301.71 118.022C301.648 117.792 301.541 117.508 301.388 117.171C301.188 116.741 301.035 116.542 300.928 116.573C300.836 116.588 300.721 116.688 300.583 116.872C300.521 119.156 300.56 121.41 300.698 123.633C300.728 124.124 300.966 124.423 301.411 124.53C301.196 124.53 300.866 124.523 300.422 124.507C299.992 124.492 299.67 124.484 299.456 124.484C299.318 124.484 299.103 124.492 298.812 124.507C298.536 124.523 298.329 124.53 298.191 124.53C298.589 124.362 298.827 124.224 298.904 124.116C298.965 124.055 298.996 123.902 298.996 123.656L299.042 115.975L297.846 116.021Z" fill="white"/>
<path d="M308.918 125.496C308.795 125.588 308.304 125.964 307.446 126.623C306.48 127.359 305.844 127.727 305.537 127.727C305.491 127.727 305.46 127.712 305.445 127.681L303.904 125.795C303.705 125.35 303.605 125.044 303.605 124.875C303.605 124.691 303.72 124.53 303.95 124.392L304.41 124.116L305.422 123.886C305.299 124.009 305.238 124.162 305.238 124.346C305.238 124.408 305.253 124.546 305.284 124.76C305.33 124.96 305.345 125.098 305.33 125.174C305.376 125.358 305.583 125.596 305.951 125.887C306.319 126.163 306.587 126.278 306.756 126.232C306.756 126.063 306.902 125.795 307.193 125.427L307.078 125.45C307.139 125.404 307.17 125.335 307.17 125.243C307.17 125.044 306.572 124.262 305.376 122.897C304.195 121.517 303.605 120.766 303.605 120.644C303.605 120.567 303.636 120.513 303.697 120.483L303.904 120.253C304.027 120.161 304.517 119.785 305.376 119.126C306.342 118.39 306.978 118.022 307.285 118.022C307.331 118.022 307.362 118.037 307.377 118.068L308.918 119.954C309.117 120.398 309.217 120.705 309.217 120.873C309.217 121.057 309.102 121.218 308.872 121.356L307.216 121.724V121.632C307.339 121.51 307.4 121.349 307.4 121.149C307.4 121.073 307.377 120.927 307.331 120.713C307.3 120.498 307.293 120.345 307.308 120.253C307.262 120.069 307.116 119.9 306.871 119.747C306.641 119.578 306.426 119.494 306.227 119.494C306.058 119.494 305.89 119.593 305.721 119.793C305.552 119.992 305.468 120.184 305.468 120.368C305.468 120.475 305.499 120.567 305.56 120.644C306.035 121.257 306.84 122.177 307.975 123.403C308.772 124.262 309.171 124.829 309.171 125.105C309.171 125.213 309.132 125.297 309.056 125.358L308.918 125.381V125.496Z" fill="white"/>
<defs>
<filter id="filter0_d_1307_14" x="-1" y="0.791748" width="383" height="135.768" filterUnits="userSpaceOnUse" color-interpolation-filters="sRGB">
<feFlood flood-opacity="0" result="BackgroundImageFix"/>
<feColorMatrix in="SourceAlpha" type="matrix" values="0 0 0 0 0 0 0 0 0 0 0 0 0 0 0 0 0 0 127 0" result="hardAlpha"/>
<feOffset dy="4"/>
<feGaussianBlur stdDeviation="2"/>
<feComposite in2="hardAlpha" operator="out"/>
<feColorMatrix type="matrix" values="0 0 0 0 0 0 0 0 0 0 0 0 0 0 0 0 0 0 0.25 0"/>
<feBlend mode="normal" in2="BackgroundImageFix" result="effect1_dropShadow_1307_14"/>
<feBlend mode="normal" in="SourceGraphic" in2="effect1_dropShadow_1307_14" result="shape"/>
</filter>
</defs>
</svg>
